<svg width="60" height="62" viewBox="0 0 60 62" fill="none" xmlns="http://www.w3.org/2000/svg">
<path d="M3.47289 17.5987C3.20577 17.2798 3.25709 16.7871 2.99355 16.446C2.67915 16.0391 2.18503 15.7962 1.67084 15.7962C0.748025 15.7963 0 16.5444 0 17.4671C0 18.0186 0.279669 18.5438 0.736484 18.8525C1.21145 19.1737 1.61773 19.0916 1.95096 19.6049C2.2899 20.1272 2.66033 20.5641 3.3418 20.5641C4.12937 20.5641 4.76793 19.9257 4.76793 19.138C4.76793 18.2997 4.2254 18.1138 3.64231 17.7462C3.57418 17.7033 3.51883 17.6535 3.47289 17.5987Z" fill="#FCFCFC"/>
<path d="M56.5019 4.87993C56.5849 4.61304 56.7011 4.35589 56.8969 4.13729C57.1234 3.88462 57.4791 3.79824 57.8146 3.74759C58.8677 3.58849 59.8829 4.03533 59.9922 2.65144C60.099 1.30049 59.0904 0.118843 57.7394 0.0120623C55.5714 -0.15937 56.6532 1.53691 55.5479 2.53189C54.4556 3.51498 52.9833 2.46902 52.8189 4.54581C52.7278 5.69889 53.5885 6.70753 54.7426 6.79874C56.3349 6.92412 56.2038 5.83883 56.5019 4.87993Z" fill="#FCFCFC"/>
<path d="M6.3713 22.1633C6.3713 22.7203 5.91975 23.1717 5.36287 23.1717C4.80589 23.1717 4.35445 22.7203 4.35445 22.1633C4.35445 21.6063 4.80589 21.1549 5.36287 21.1549C5.91975 21.1549 6.3713 21.6063 6.3713 22.1633Z" fill="#FCFCFC"/>
<path d="M52.084 10.6603C51.9604 10.9775 51.6032 11.1344 51.2861 11.0108C50.9689 10.8873 50.8119 10.53 50.9355 10.2129C51.059 9.89579 51.4163 9.73881 51.7335 9.8624C52.0506 9.98599 52.2075 10.3432 52.084 10.6603Z" fill="#FCFCFC"/>
<path d="M56.0462 10.3672C55.8165 10.9566 55.1524 11.2483 54.563 11.0187C53.9734 10.789 53.6817 10.1249 53.9114 9.53544C54.1411 8.94585 54.8052 8.65419 55.3947 8.88389C55.9841 9.11358 56.2759 9.77768 56.0462 10.3672Z" fill="#FCFCFC"/>
<path d="M21.3857 58.2424C21.3857 59.9751 19.981 61.3797 18.2483 61.3797C16.5157 61.3797 15.111 59.9751 15.111 58.2424C15.111 56.5097 16.5157 55.1051 18.2483 55.1051C19.981 55.1051 21.3857 56.5097 21.3857 58.2424Z" fill="#FCFCFC"/>
<path d="M11.6635 57.2513C11.7392 57.0879 12.037 57.0406 12.1448 56.9153C12.4275 56.587 12.3905 56.0918 12.0624 55.8092C11.7341 55.5265 11.2389 55.5635 10.9562 55.8917C10.7997 56.0734 10.8096 56.4801 10.4893 56.4172C10.178 56.3561 9.91038 56.2603 9.58422 56.2746C8.9553 56.3023 8.3563 56.5928 7.94553 57.0698C7.11784 58.0312 7.22608 59.4814 8.18744 60.3092C9.14869 61.1369 10.599 61.0288 11.4267 60.0673C11.8639 59.5596 12.0587 58.8739 11.9546 58.2121C11.9296 58.053 11.8878 57.8964 11.8302 57.746C11.785 57.6283 11.65 57.4654 11.6458 57.3408C11.6448 57.3074 11.6511 57.2778 11.6635 57.2513Z" fill="#FCFCFC"/>
<path d="M21.7778 51.1834C21.7778 51.5547 21.4768 51.8557 21.1055 51.8557C20.7342 51.8557 20.4332 51.5547 20.4332 51.1834C20.4332 50.8121 20.7342 50.5111 21.1055 50.5111C21.4768 50.5111 21.7778 50.8121 21.7778 51.1834Z" fill="#FCFCFC"/>
<path d="M22.5621 57.1779C22.5621 57.3945 22.3865 57.57 22.1699 57.57C21.9533 57.57 21.7777 57.3945 21.7777 57.1779C21.7777 56.9613 21.9533 56.7857 22.1699 56.7857C22.3865 56.7857 22.5621 56.9613 22.5621 57.1779Z" fill="#FCFCFC"/>
<path d="M27.1561 54.7129C27.1561 55.239 26.7297 55.6653 26.2037 55.6653C25.6777 55.6653 25.2513 55.239 25.2513 54.7129C25.2513 54.1868 25.6777 53.7605 26.2037 53.7605C26.7297 53.7605 27.1561 54.1868 27.1561 54.7129Z" fill="#FCFCFC"/>
<path fill-rule="evenodd" clip-rule="evenodd" d="M55.5753 41.9232C55.5321 40.8898 55.2556 39.8632 54.6718 38.8397C54.1098 37.8542 53.5407 36.8726 52.9717 35.891L52.9685 35.8855L52.9669 35.8827C52.6809 35.3894 52.3949 34.8961 52.1098 34.4023L54.2098 33.4387C56.8453 32.2296 57.1834 28.6209 54.8186 26.9431C54.0003 26.3625 53.5592 25.812 53.0007 25.115C52.8816 24.9664 52.7567 24.8106 52.6221 24.6469C52.5522 24.5618 52.4806 24.4777 52.4091 24.3935C52.147 24.0852 51.8844 23.7763 51.6979 23.4186C50.9281 21.9416 51.5445 20.7075 52.1684 19.4585C52.583 18.6283 53.0009 17.7915 53.0173 16.8724C53.0346 15.9036 52.6601 14.9415 52.0014 14.2322C51.8466 14.0654 49.7307 12.7287 49.6897 13.06L49.8305 11.9224C50.1867 9.04483 47.2943 6.8607 44.624 7.99103C44.2421 8.15268 43.8601 8.33744 43.477 8.52272C41.8785 9.29588 40.2615 10.078 38.5543 9.22702C36.9716 8.43814 36.0943 6.80854 35.2817 5.29916C35.104 4.96914 34.9295 4.64487 34.7513 4.3364C33.8754 2.81996 32.0266 2.10229 30.3546 2.62544C29.4897 2.89606 28.8784 3.46128 28.2681 4.02552C27.5071 4.72911 26.7478 5.43118 25.5004 5.55871C24.0194 5.7101 22.2695 4.20954 20.8226 2.96874C20.3183 2.53627 19.8508 2.13535 19.4443 1.84694C17.0793 0.169149 13.785 1.68066 13.5144 4.56766C13.4683 5.06028 13.4732 5.68336 13.4786 6.35919C13.4988 8.88758 13.5248 12.1542 10.9018 12.0896C8.00327 12.0182 6.11438 15.1113 7.50141 17.6573C7.62976 17.8929 7.8214 18.1847 8.03692 18.5129C8.90853 19.84 10.1707 21.7619 9.21707 22.9642C8.70344 23.6119 7.25077 24.0627 6.03217 24.4409C5.50796 24.6036 5.02707 24.7529 4.68287 24.8986C2.01268 26.0289 1.56741 29.626 3.8814 31.3734C4.26924 31.6663 4.68301 31.943 5.0967 32.2198C6.82445 33.3755 8.55092 34.5303 8.38232 36.8528C8.35117 37.2809 8.22176 37.695 8.09336 38.1044C7.66063 39.4831 7.17961 40.622 6.54139 41.8985C5.14495 44.3172 6.77524 47.3169 9.488 47.5347L9.46772 47.7509C9.19724 50.6377 12.1534 52.7349 14.7888 51.5257L19.283 49.4638C19.5084 49.3604 19.7546 49.2293 20.0124 49.092C20.8367 48.6529 21.7797 48.1507 22.5425 48.2876C23.9107 48.5336 24.6575 49.6601 25.391 50.7666C25.7965 51.3783 26.1979 51.9838 26.6981 52.4312C27.3865 53.047 28.2952 53.384 29.2177 53.3817C29.4999 53.381 31.9172 52.5432 31.7395 52.409L38.4945 57.5095C40.8083 59.2568 44.1462 57.8439 44.5024 54.9662C44.549 54.5899 44.5582 54.2201 44.5672 53.8609C44.5918 52.8823 44.6143 51.9829 45.3841 51.2465C46.3722 50.3011 47.7519 49.7903 49.0301 49.3815C49.3639 49.2747 49.7147 49.1753 50.0722 49.0739C51.8842 48.5603 53.8655 47.9987 54.6381 46.2011C55.2594 44.7556 55.6343 43.333 55.5753 41.9232ZM15.0928 33.993C15.0928 34.4423 15.4569 34.8068 15.9063 34.8068C16.3558 34.8068 16.7201 34.4423 16.7201 33.993C16.7201 33.5435 16.3558 33.179 15.9063 33.179C15.4569 33.179 15.0928 33.5435 15.0928 33.993ZM21.7899 17.4879C22.8373 16.2829 24.196 15.4233 25.865 14.9097C27.0762 14.5368 28.3854 14.3505 29.7933 14.3505C30.3249 14.3505 30.8707 14.3771 31.4305 14.4301C34.7501 14.7458 37.32 15.781 39.1446 17.5337L39.1577 17.5466L39.172 17.56C39.1816 17.569 39.1913 17.5777 39.2005 17.5859C40.4835 18.8407 40.5755 20.5714 39.886 21.9063C39.2425 23.1614 37.9095 24.0689 36.2308 23.909L35.7771 23.865C35.2967 23.8191 34.8306 23.6885 34.4051 23.4824C33.7191 23.15 33.1385 22.6214 32.7734 21.9345C32.7399 21.8706 32.7041 21.8098 32.666 21.7516L32.6476 21.7241C32.6026 21.6576 32.5546 21.5947 32.5037 21.5348C32.2532 21.2413 31.941 21.0249 31.5674 20.8853C31.3328 20.7977 31.074 20.7403 30.7912 20.7133C30.1637 20.6533 29.658 20.7692 29.2741 21.063C28.8884 21.355 28.6668 21.8284 28.6048 22.4821C28.5285 23.281 28.8398 23.9478 29.5405 24.478L29.5668 24.4978L29.5839 24.5104C30.0482 24.8516 30.6888 25.2308 31.5053 25.6488C31.9751 25.8892 32.5031 26.1425 33.0892 26.4089C34.8053 27.2152 36.227 27.98 37.3506 28.7027L37.4379 28.7591C38.5752 29.4985 39.5223 30.5098 40.2799 31.7888C41.0373 33.0698 41.3249 34.6626 41.143 36.5673C41.0086 37.9715 40.5739 39.2318 39.8367 40.3482C39.7841 40.428 39.7299 40.507 39.6741 40.5852C39.6184 40.6636 39.5611 40.7412 39.5022 40.818C39.3367 41.0341 39.1603 41.2406 38.9729 41.4375C38.6275 41.8006 38.2448 42.1313 37.8249 42.4294C37.1772 42.8894 36.4407 43.2721 35.6153 43.5777C34.8892 43.8471 34.1096 44.0371 33.2765 44.1475C33.0528 44.1772 32.8252 44.2011 32.5938 44.2192C31.7284 44.2872 30.807 44.273 29.8337 44.1813C26.4863 43.8615 23.8065 42.7963 21.7961 40.9859C21.686 40.886 21.578 40.7819 21.4723 40.6779C21.1302 40.3392 20.8731 39.967 20.6931 39.5779H17.7436C17.2249 39.5779 16.8045 39.1574 16.8045 38.6388V38.4827C16.8045 37.9643 17.2249 37.5438 17.7436 37.5438H20.4034C20.669 35.714 22.2769 34.1117 24.4738 34.3208L24.8177 34.3528C26.0866 34.4747 27.2217 35.2261 27.7875 36.3693C27.8914 36.5813 28.0213 36.7709 28.175 36.939C28.6726 37.4806 29.3163 37.7884 30.1057 37.8643C30.8132 37.9303 31.3807 37.8064 31.8082 37.4904C32.2359 37.1746 32.4817 36.6892 32.5438 36.0375C32.6278 35.1664 32.2958 34.4547 31.5524 33.9031C30.809 33.3516 29.6081 32.7081 27.9471 31.9748C26.1825 31.1752 24.7376 30.4198 23.6125 29.7084C22.7813 29.1848 22.0557 28.5053 21.4361 27.6739H23.3867C23.9045 27.6739 24.3259 27.2544 24.3259 26.7346V26.579C24.3259 26.0612 23.9045 25.6395 23.3867 25.6395H20.313C20.0748 24.9547 19.9422 24.2028 19.9143 23.3837H16.46C15.9412 23.3837 15.5207 22.9632 15.5207 22.4446V22.2887C15.5207 21.7701 15.9412 21.3495 16.46 21.3495H20.0422C20.1267 20.8221 20.2522 20.3226 20.4189 19.8508H18.4405C17.9219 19.8508 17.5014 19.4301 17.5014 18.9117V18.7556C17.5014 18.2372 17.9219 17.8166 18.4405 17.8166H21.5202C21.6066 17.7047 21.6965 17.5951 21.7899 17.4879Z" fill="#FCFCFC"/>
</svg>
