<svg width="60" height="62" viewBox="0 0 60 62" fill="none" xmlns="http://www.w3.org/2000/svg">
<path d="M3.47289 17.5987C3.20577 17.2798 3.25709 16.787 2.99355 16.4459C2.67915 16.0391 2.18503 15.7962 1.67084 15.7962C0.748025 15.7963 0 16.5443 0 17.467C0 18.0185 0.279669 18.5438 0.736484 18.8525C1.21145 19.1736 1.61773 19.0916 1.95096 19.6049C2.2899 20.1271 2.66033 20.5641 3.3418 20.5641C4.12937 20.5641 4.76793 19.9257 4.76793 19.138C4.76793 18.2996 4.2254 18.1138 3.64231 17.7461C3.57418 17.7032 3.51883 17.6535 3.47289 17.5987Z" fill="url(#paint0_linear)"/>
<path d="M56.5019 4.87989C56.5849 4.61299 56.7011 4.35585 56.8969 4.13724C57.1234 3.88458 57.4791 3.79819 57.8146 3.74755C58.8677 3.58844 59.8829 4.03528 59.9922 2.65139C60.099 1.30044 59.0904 0.118797 57.7394 0.0120166C55.5714 -0.159415 56.6532 1.53686 55.5479 2.53184C54.4556 3.51494 52.9833 2.46898 52.8189 4.54577C52.7278 5.69884 53.5885 6.70749 54.7426 6.79869C56.3349 6.92407 56.2038 5.83879 56.5019 4.87989Z" fill="url(#paint1_linear)"/>
<path d="M6.3713 22.1632C6.3713 22.7202 5.91975 23.1717 5.36287 23.1717C4.80589 23.1717 4.35445 22.7202 4.35445 22.1632C4.35445 21.6063 4.80589 21.1548 5.36287 21.1548C5.91975 21.1548 6.3713 21.6063 6.3713 22.1632Z" fill="url(#paint2_linear)"/>
<path d="M52.084 10.6602C51.9604 10.9774 51.6032 11.1343 51.2861 11.0107C50.9689 10.8872 50.8119 10.5299 50.9355 10.2128C51.059 9.89575 51.4163 9.73877 51.7335 9.86235C52.0506 9.98594 52.2075 10.3431 52.084 10.6602Z" fill="url(#paint3_linear)"/>
<path d="M56.0462 10.3671C55.8165 10.9566 55.1524 11.2483 54.563 11.0187C53.9734 10.789 53.6817 10.1249 53.9114 9.53539C54.1411 8.9458 54.8052 8.65414 55.3947 8.88384C55.9841 9.11354 56.2759 9.77764 56.0462 10.3671Z" fill="url(#paint4_linear)"/>
<path d="M21.3857 58.2423C21.3857 59.975 19.981 61.3796 18.2483 61.3796C16.5157 61.3796 15.111 59.975 15.111 58.2423C15.111 56.5096 16.5157 55.105 18.2483 55.105C19.981 55.105 21.3857 56.5096 21.3857 58.2423Z" fill="url(#paint5_linear)"/>
<path d="M11.6635 57.2513C11.7392 57.0878 12.037 57.0405 12.1448 56.9153C12.4275 56.587 12.3905 56.0917 12.0624 55.8091C11.7341 55.5265 11.2389 55.5634 10.9562 55.8916C10.7997 56.0734 10.8096 56.4801 10.4893 56.4171C10.178 56.356 9.91038 56.2602 9.58422 56.2746C8.9553 56.3023 8.3563 56.5928 7.94553 57.0698C7.11784 58.0311 7.22608 59.4814 8.18744 60.3092C9.14869 61.1369 10.599 61.0287 11.4267 60.0673C11.8639 59.5596 12.0587 58.8738 11.9546 58.2121C11.9296 58.053 11.8878 57.8964 11.8302 57.746C11.785 57.6282 11.65 57.4653 11.6458 57.3407C11.6448 57.3073 11.6511 57.2777 11.6635 57.2513Z" fill="url(#paint6_linear)"/>
<path d="M21.7778 51.1833C21.7778 51.5547 21.4768 51.8556 21.1055 51.8556C20.7342 51.8556 20.4332 51.5547 20.4332 51.1833C20.4332 50.812 20.7342 50.5111 21.1055 50.5111C21.4768 50.5111 21.7778 50.812 21.7778 51.1833Z" fill="url(#paint7_linear)"/>
<path d="M22.5621 57.1778C22.5621 57.3944 22.3865 57.57 22.1699 57.57C21.9533 57.57 21.7777 57.3944 21.7777 57.1778C21.7777 56.9613 21.9533 56.7857 22.1699 56.7857C22.3865 56.7857 22.5621 56.9613 22.5621 57.1778Z" fill="url(#paint8_linear)"/>
<path d="M27.1561 54.7129C27.1561 55.2389 26.7297 55.6653 26.2037 55.6653C25.6777 55.6653 25.2513 55.2389 25.2513 54.7129C25.2513 54.1868 25.6777 53.7605 26.2037 53.7605C26.7297 53.7605 27.1561 54.1868 27.1561 54.7129Z" fill="url(#paint9_linear)"/>
<path fill-rule="evenodd" clip-rule="evenodd" d="M55.5753 41.9231C55.5321 40.8897 55.2556 39.8632 54.6718 38.8396C54.1098 37.8541 53.5407 36.8725 52.9717 35.8909L52.9685 35.8854L52.9669 35.8827C52.6809 35.3894 52.3949 34.896 52.1098 34.4022L54.2098 33.4386C56.8453 32.2295 57.1834 28.6208 54.8186 26.943C54.0003 26.3624 53.5592 25.8119 53.0007 25.115C52.8816 24.9663 52.7567 24.8105 52.6221 24.6469C52.5522 24.5618 52.4806 24.4776 52.4091 24.3935C52.147 24.0852 51.8844 23.7763 51.6979 23.4186C50.9281 21.9415 51.5445 20.7074 52.1684 19.4584C52.583 18.6282 53.0009 17.7915 53.0173 16.8724C53.0346 15.9035 52.6601 14.9415 52.0014 14.2321C51.8466 14.0654 49.7307 12.7287 49.6897 13.06L49.8305 11.9224C50.1867 9.04478 47.2943 6.86065 44.624 7.99098C44.2421 8.15263 43.8601 8.3374 43.477 8.52267C41.8785 9.29583 40.2615 10.078 38.5543 9.22697C36.9716 8.43809 36.0943 6.80849 35.2817 5.29911C35.104 4.9691 34.9295 4.64483 34.7513 4.33635C33.8754 2.81991 32.0266 2.10225 30.3546 2.62539C29.4897 2.89602 28.8784 3.46123 28.2681 4.02548C27.5071 4.72906 26.7478 5.43114 25.5004 5.55867C24.0194 5.71005 22.2695 4.20949 20.8226 2.9687C20.3183 2.53622 19.8508 2.1353 19.4443 1.84689C17.0793 0.169104 13.785 1.68062 13.5144 4.56762C13.4683 5.06024 13.4732 5.68332 13.4786 6.35914C13.4988 8.88754 13.5248 12.1542 10.9018 12.0895C8.00327 12.0182 6.11438 15.1112 7.50141 17.6573C7.62976 17.8928 7.8214 18.1846 8.03692 18.5128C8.90853 19.84 10.1707 21.7618 9.21707 22.9641C8.70344 23.6118 7.25077 24.0627 6.03217 24.4409C5.50796 24.6036 5.02707 24.7528 4.68287 24.8985C2.01268 26.0288 1.56741 29.626 3.8814 31.3734C4.26924 31.6662 4.68301 31.943 5.0967 32.2197C6.82445 33.3754 8.55092 34.5303 8.38232 36.8528C8.35117 37.2808 8.22176 37.6949 8.09336 38.1044C7.66063 39.4831 7.17961 40.6219 6.54139 41.8985C5.14495 44.3171 6.77524 47.3168 9.488 47.5347L9.46772 47.7508C9.19724 50.6377 12.1534 52.7349 14.7888 51.5257L19.283 49.4638C19.5084 49.3603 19.7546 49.2292 20.0124 49.0919C20.8367 48.6529 21.7797 48.1506 22.5425 48.2875C23.9107 48.5336 24.6575 49.6601 25.391 50.7666C25.7965 51.3782 26.1979 51.9838 26.6981 52.4311C27.3865 53.0469 28.2952 53.384 29.2177 53.3816C29.4999 53.3809 31.9172 52.5432 31.7395 52.4089L38.4945 57.5094C40.8083 59.2568 44.1462 57.8439 44.5024 54.9662C44.549 54.5898 44.5582 54.22 44.5672 53.8609C44.5918 52.8822 44.6143 51.9828 45.3841 51.2464C46.3722 50.3011 47.7519 49.7903 49.0301 49.3814C49.3639 49.2747 49.7147 49.1752 50.0722 49.0739C51.8842 48.5603 53.8655 47.9987 54.6381 46.2011C55.2594 44.7556 55.6343 43.3329 55.5753 41.9231ZM15.0928 33.993C15.0928 34.4422 15.4569 34.8067 15.9063 34.8067C16.3558 34.8067 16.7201 34.4422 16.7201 33.993C16.7201 33.5435 16.3558 33.179 15.9063 33.179C15.4569 33.179 15.0928 33.5435 15.0928 33.993ZM21.7899 17.4879C22.8373 16.2828 24.196 15.4233 25.865 14.9097C27.0762 14.5368 28.3854 14.3505 29.7933 14.3505C30.3249 14.3505 30.8707 14.3771 31.4305 14.43C34.7501 14.7458 37.32 15.781 39.1446 17.5337L39.1577 17.5465L39.172 17.56C39.1816 17.5689 39.1913 17.5777 39.2005 17.5858C40.4835 18.8407 40.5755 20.5713 39.886 21.9063C39.2425 23.1613 37.9095 24.0688 36.2308 23.909L35.7771 23.865C35.2967 23.819 34.8306 23.6884 34.4051 23.4823C33.7191 23.15 33.1385 22.6214 32.7734 21.9345C32.7399 21.8706 32.7041 21.8097 32.666 21.7516L32.6476 21.724C32.6026 21.6576 32.5546 21.5946 32.5037 21.5348C32.2532 21.2413 31.941 21.0248 31.5674 20.8853C31.3328 20.7976 31.074 20.7403 30.7912 20.7132C30.1637 20.6533 29.658 20.7692 29.2741 21.063C28.8884 21.3549 28.6668 21.8284 28.6048 22.4821C28.5285 23.2809 28.8398 23.9477 29.5405 24.478L29.5668 24.4977L29.5839 24.5103C30.0482 24.8515 30.6888 25.2307 31.5053 25.6487C31.9751 25.8892 32.5031 26.1425 33.0892 26.4088C34.8053 27.2152 36.227 27.98 37.3506 28.7026L37.4379 28.759C38.5752 29.4985 39.5223 30.5097 40.2799 31.7887C41.0373 33.0697 41.3249 34.6625 41.143 36.5673C41.0086 37.9714 40.5739 39.2318 39.8367 40.3482C39.7841 40.4279 39.7299 40.5069 39.6741 40.5852C39.6184 40.6635 39.5611 40.7411 39.5022 40.818C39.3367 41.034 39.1603 41.2405 38.9729 41.4375C38.6275 41.8006 38.2448 42.1312 37.8249 42.4294C37.1772 42.8893 36.4407 43.272 35.6153 43.5777C34.8892 43.8471 34.1096 44.0371 33.2765 44.1475C33.0528 44.1771 32.8252 44.201 32.5938 44.2192C31.7284 44.2871 30.807 44.2729 29.8337 44.1812C26.4863 43.8615 23.8065 42.7963 21.7961 40.9859C21.686 40.8859 21.578 40.7818 21.4723 40.6779C21.1302 40.3391 20.8731 39.9669 20.6931 39.5778H17.7436C17.2249 39.5778 16.8045 39.1573 16.8045 38.6387V38.4827C16.8045 37.9643 17.2249 37.5438 17.7436 37.5438H20.4034C20.669 35.714 22.2769 34.1117 24.4738 34.3208L24.8177 34.3528C26.0866 34.4747 27.2217 35.2261 27.7875 36.3692C27.8914 36.5812 28.0213 36.7709 28.175 36.939C28.6726 37.4806 29.3163 37.7883 30.1057 37.8643C30.8132 37.9302 31.3807 37.8063 31.8082 37.4903C32.2359 37.1746 32.4817 36.6892 32.5438 36.0375C32.6278 35.1663 32.2958 34.4547 31.5524 33.9031C30.809 33.3515 29.6081 32.708 27.9471 31.9748C26.1825 31.1752 24.7376 30.4198 23.6125 29.7083C22.7813 29.1847 22.0557 28.5052 21.4361 27.6739H23.3867C23.9045 27.6739 24.3259 27.2544 24.3259 26.7346V26.5789C24.3259 26.0611 23.9045 25.6394 23.3867 25.6394H20.313C20.0748 24.9547 19.9422 24.2028 19.9143 23.3837H16.46C15.9412 23.3837 15.5207 22.9632 15.5207 22.4446V22.2887C15.5207 21.7701 15.9412 21.3494 16.46 21.3494H20.0422C20.1267 20.8221 20.2522 20.3226 20.4189 19.8507H18.4405C17.9219 19.8507 17.5014 19.4301 17.5014 18.9117V18.7556C17.5014 18.2372 17.9219 17.8165 18.4405 17.8165H21.5202C21.6066 17.7046 21.6965 17.5951 21.7899 17.4879Z" fill="url(#paint10_linear)"/>
<defs>
<linearGradient id="paint0_linear" x1="39.7732" y1="5.56695" x2="-19.3608" y2="69.7731" gradientUnits="userSpaceOnUse">
<stop stop-color="#5A5EFD"/>
<stop offset="0.179418" stop-color="#763FE7" stop-opacity="0.880259"/>
<stop offset="0.396281" stop-color="#983AE8" stop-opacity="0.77"/>
<stop offset="0.625" stop-color="#A840FF"/>
<stop offset="1" stop-color="#E4C3FF"/>
</linearGradient>
<linearGradient id="paint1_linear" x1="39.7732" y1="5.56695" x2="-19.3608" y2="69.7731" gradientUnits="userSpaceOnUse">
<stop stop-color="#5A5EFD"/>
<stop offset="0.179418" stop-color="#763FE7" stop-opacity="0.880259"/>
<stop offset="0.396281" stop-color="#983AE8" stop-opacity="0.77"/>
<stop offset="0.625" stop-color="#A840FF"/>
<stop offset="1" stop-color="#E4C3FF"/>
</linearGradient>
<linearGradient id="paint2_linear" x1="39.7732" y1="5.56695" x2="-19.3608" y2="69.7731" gradientUnits="userSpaceOnUse">
<stop stop-color="#5A5EFD"/>
<stop offset="0.179418" stop-color="#763FE7" stop-opacity="0.880259"/>
<stop offset="0.396281" stop-color="#983AE8" stop-opacity="0.77"/>
<stop offset="0.625" stop-color="#A840FF"/>
<stop offset="1" stop-color="#E4C3FF"/>
</linearGradient>
<linearGradient id="paint3_linear" x1="39.7732" y1="5.56695" x2="-19.3608" y2="69.7731" gradientUnits="userSpaceOnUse">
<stop stop-color="#5A5EFD"/>
<stop offset="0.179418" stop-color="#763FE7" stop-opacity="0.880259"/>
<stop offset="0.396281" stop-color="#983AE8" stop-opacity="0.77"/>
<stop offset="0.625" stop-color="#A840FF"/>
<stop offset="1" stop-color="#E4C3FF"/>
</linearGradient>
<linearGradient id="paint4_linear" x1="39.7732" y1="5.56695" x2="-19.3608" y2="69.7731" gradientUnits="userSpaceOnUse">
<stop stop-color="#5A5EFD"/>
<stop offset="0.179418" stop-color="#763FE7" stop-opacity="0.880259"/>
<stop offset="0.396281" stop-color="#983AE8" stop-opacity="0.77"/>
<stop offset="0.625" stop-color="#A840FF"/>
<stop offset="1" stop-color="#E4C3FF"/>
</linearGradient>
<linearGradient id="paint5_linear" x1="39.7732" y1="5.56695" x2="-19.3608" y2="69.7731" gradientUnits="userSpaceOnUse">
<stop stop-color="#5A5EFD"/>
<stop offset="0.179418" stop-color="#763FE7" stop-opacity="0.880259"/>
<stop offset="0.396281" stop-color="#983AE8" stop-opacity="0.77"/>
<stop offset="0.625" stop-color="#A840FF"/>
<stop offset="1" stop-color="#E4C3FF"/>
</linearGradient>
<linearGradient id="paint6_linear" x1="39.7732" y1="5.56695" x2="-19.3608" y2="69.7731" gradientUnits="userSpaceOnUse">
<stop stop-color="#5A5EFD"/>
<stop offset="0.179418" stop-color="#763FE7" stop-opacity="0.880259"/>
<stop offset="0.396281" stop-color="#983AE8" stop-opacity="0.77"/>
<stop offset="0.625" stop-color="#A840FF"/>
<stop offset="1" stop-color="#E4C3FF"/>
</linearGradient>
<linearGradient id="paint7_linear" x1="39.7732" y1="5.56695" x2="-19.3608" y2="69.7731" gradientUnits="userSpaceOnUse">
<stop stop-color="#5A5EFD"/>
<stop offset="0.179418" stop-color="#763FE7" stop-opacity="0.880259"/>
<stop offset="0.396281" stop-color="#983AE8" stop-opacity="0.77"/>
<stop offset="0.625" stop-color="#A840FF"/>
<stop offset="1" stop-color="#E4C3FF"/>
</linearGradient>
<linearGradient id="paint8_linear" x1="39.7732" y1="5.56695" x2="-19.3608" y2="69.7731" gradientUnits="userSpaceOnUse">
<stop stop-color="#5A5EFD"/>
<stop offset="0.179418" stop-color="#763FE7" stop-opacity="0.880259"/>
<stop offset="0.396281" stop-color="#983AE8" stop-opacity="0.77"/>
<stop offset="0.625" stop-color="#A840FF"/>
<stop offset="1" stop-color="#E4C3FF"/>
</linearGradient>
<linearGradient id="paint9_linear" x1="39.7732" y1="5.56695" x2="-19.3608" y2="69.7731" gradientUnits="userSpaceOnUse">
<stop stop-color="#5A5EFD"/>
<stop offset="0.179418" stop-color="#763FE7" stop-opacity="0.880259"/>
<stop offset="0.396281" stop-color="#983AE8" stop-opacity="0.77"/>
<stop offset="0.625" stop-color="#A840FF"/>
<stop offset="1" stop-color="#E4C3FF"/>
</linearGradient>
<linearGradient id="paint10_linear" x1="39.7732" y1="5.56695" x2="-19.3608" y2="69.7731" gradientUnits="userSpaceOnUse">
<stop stop-color="#5A5EFD"/>
<stop offset="0.179418" stop-color="#763FE7" stop-opacity="0.880259"/>
<stop offset="0.396281" stop-color="#983AE8" stop-opacity="0.77"/>
<stop offset="0.625" stop-color="#A840FF"/>
<stop offset="1" stop-color="#E4C3FF"/>
</linearGradient>
</defs>
</svg>
