<?xml version="1.0" encoding="UTF-8"?>
<svg xmlns="http://www.w3.org/2000/svg" width="512" height="512" viewBox="0 0 512 512"><g><path d="M376,8a88.023,88.023,0,0,0-75.67,43.13,104.843,104.843,0,0,0-10.79-12.67A104,104,0,0,0,112,112V272a104,104,0,0,0,208,0V163.83A87.983,87.983,0,1,0,376,8ZM304,152H280a8,8,0,0,0,0,16h24v16H280a8,8,0,0,0,0,16h24v16H280a8,8,0,0,0,0,16h24v16H280a8,8,0,0,0,0,16h24v8a88.091,88.091,0,0,1-48,78.37V320a8,8,0,0,0-16,0v36.67a86.4,86.4,0,0,1-16,2.96V296a8,8,0,0,0-16,0v63.63a86.4,86.4,0,0,1-16-2.96V320a8,8,0,0,0-16,0v30.37A88.091,88.091,0,0,1,128,272v-8h24a8,8,0,0,0,0-16H128V232h24a8,8,0,0,0,0-16H128V200h24a8,8,0,0,0,0-16H128V168h24a8,8,0,0,0,0-16H128V136h24a8,8,0,0,0,0-16H128v-8a88.091,88.091,0,0,1,48-78.37V64a8,8,0,0,0,16,0V27.33a86.4,86.4,0,0,1,16-2.96V88a8,8,0,0,0,16,0V24.37a88.168,88.168,0,0,1,16,2.95V64a8,8,0,0,0,16,0V33.59a88.406,88.406,0,0,1,36.44,34.79A88.139,88.139,0,0,0,291.33,120H280a8,8,0,0,0,0,16h16a7.91,7.91,0,0,0,1.55-.15A87.684,87.684,0,0,0,304,146.5Zm72,16a72,72,0,1,1,72-72A72.083,72.083,0,0,1,376,168Z"/><path d="M421.255,88H384V50.745a8,8,0,0,0-16,0V88H330.745a8,8,0,0,0,0,16H368v37.255a8,8,0,0,0,16,0V104h37.255a8,8,0,0,0,0-16Z"/><path d="M216,120a8,8,0,0,0-8,8V256a8,8,0,0,0,16,0V128A8,8,0,0,0,216,120Z"/><path d="M352,184a24.027,24.027,0,0,0-24,24v64A112.136,112.136,0,0,1,216,384c-.219,0-.441,0-.66,0C153.948,383.645,104,332.811,104,270.68V208a24,24,0,0,0-48,0v62.529c0,80.717,59.151,147.91,136,159.648V456H120a8,8,0,0,0-7.761,6.06l-8,32A8,8,0,0,0,112,504H320a8,8,0,0,0,7.761-9.94l-8-32A8,8,0,0,0,312,456H240V430.213A160.28,160.28,0,0,0,376,272V208A24.027,24.027,0,0,0,352,184ZM305.754,472l4,16H122.246l4-16H305.754ZM208,456V432h16v24ZM360,272A144.172,144.172,0,0,1,216,416h-.409C136.415,415.779,72,350.521,72,270.529V208a8,8,0,0,1,16,0v62.68c0,70.9,57.085,128.914,127.252,129.318A128.135,128.135,0,0,0,344,272V208a8,8,0,0,1,16,0Z"/></g></svg>
